<svg width="642" height="309" viewBox="0 0 642 309" xmlns="http://www.w3.org/2000/svg"><title>Group</title><g fill="#000" fill-rule="evenodd"><path d="M576.944 84.672c0 2.496-.84 5.064-2.52 7.704-1.68 2.64-3.864 5.112-6.552 7.416-2.688 2.304-5.688 4.272-9 5.904-3.312 1.632-6.6 2.688-9.864 3.168-1.344.096-2.64.096-3.888 0-5.28-.288-8.64-2.544-10.08-6.768-.384-1.056-.624-2.112-.72-3.168-3.264 3.264-6.672 5.856-10.224 7.776-3.552 1.92-7.008 2.88-10.368 2.88-4.128 0-7.392-1.2-9.792-3.6-2.4-2.4-3.888-5.568-4.464-9.504-.288-1.824-.432-4.176-.432-7.056s.192-5.976.576-9.288c.384-3.312.96-6.672 1.728-10.08.768-3.408 1.8-6.552 3.096-9.432 1.296-2.88 2.88-5.304 4.752-7.272 1.872-1.968 4.056-3.192 6.552-3.672 3.552-.288 6.288.048 8.208 1.008 1.632.48 2.544 1.392 2.736 2.736.288.864.384 1.776.288 2.736 0 2.4-.36 4.776-1.08 7.128-.72 2.352-1.56 4.92-2.52 7.704s-1.944 5.952-2.952 9.504c-1.008 3.552-1.8 7.68-2.376 12.384.192 1.632 1.2 2.448 3.024 2.448 2.784 0 5.136-1.368 7.056-4.104 1.92-2.736 3.552-5.928 4.896-9.576 1.728-4.704 3.12-8.976 4.176-12.816s2.136-7.152 3.24-9.936 2.304-4.992 3.6-6.624c1.296-1.632 3-2.592 5.112-2.88 2.016-.192 4.368.048 7.056.72 1.44.384 2.736.96 3.888 1.728 1.152.768 1.824 1.776 2.016 3.024.192 2.88-.168 6.048-1.08 9.504-.912 3.456-1.992 6.936-3.24 10.44-1.248 3.504-2.448 6.864-3.6 10.08-1.152 3.216-1.92 6.024-2.304 8.424.288 1.632 1.392 2.448 3.312 2.448 1.728 0 3.768-.816 6.12-2.448 2.352-1.632 4.92-4.32 7.704-8.064.768-.864 1.512-1.824 2.232-2.88.72-1.056 1.368-1.584 1.944-1.584.864.096 1.728.48 2.592 1.152.864.672 1.248 1.584 1.152 2.736zM449.936 20.016c-2.976-.576-5.616-.96-7.92-1.152-2.304-.192-4.032-.384-5.184-.576-5.568 0-11.136.528-16.704 1.584-5.568 1.056-10.464 2.736-14.688 5.04s-7.512 5.352-9.864 9.144c-2.352 3.792-3.096 8.424-2.232 13.896.192 1.344.48 2.4.864 3.168.384.768.792 1.392 1.224 1.872.432.48.84.936 1.224 1.368.384.432.624.984.72 1.656.192 1.536-.12 2.88-.936 4.032-.816 1.152-1.896 2.112-3.24 2.88-1.344.768-2.808 1.344-4.392 1.728-1.584.384-2.952.576-4.104.576-2.4 0-4.536-.912-6.408-2.736-1.872-1.824-3.144-4.8-3.816-8.928-1.344-8.16-.48-15.288 2.592-21.384S384.656 21 390.608 16.92s12.936-7.2 20.952-9.36c8.016-2.16 16.344-3.48 24.984-3.96 2.4-.192 4.776-.312 7.128-.36 2.352-.048 4.632-.024 6.84.072 2.016.096 4.68.336 7.992.72 3.312.384 6.84.768 10.584 1.152 3.744.384 7.44.744 11.088 1.08 3.648.336 6.72.504 9.216.504 3.552 0 6.432-.288 8.64-.864 2.016-.192 3.576-.696 4.68-1.512 1.104-.816 2.328-1.224 3.672-1.224 2.784 0 5.088 1.272 6.912 3.816 1.824 2.544 2.976 5.4 3.456 8.568.384 2.4.264 4.392-.36 5.976-.624 1.584-1.656 2.88-3.096 3.888-1.44 1.008-3.216 1.728-5.328 2.16-2.112.432-4.464.648-7.056.648-2.976 0-6.648-.312-11.016-.936-4.368-.624-9.288-1.416-14.76-2.376-1.344 1.92-2.64 4.152-3.888 6.696-1.248 2.544-2.304 5.064-3.168 7.56-.96 2.784-1.872 5.568-2.736 8.352-.864 2.784-1.632 5.664-2.304 8.64 2.208-.192 4.416-.36 6.624-.504 2.208-.144 4.416-.216 6.624-.216 5.28 0 9.24.888 11.88 2.664 2.64 1.776 4.392 5.208 5.256 10.296.384 1.92.432 3.696.144 5.328-.288 1.632-.96 2.496-2.016 2.592-1.056-.096-2.256-.36-3.6-.792-1.344-.432-2.784-.912-4.32-1.44-1.536-.528-3.144-.984-4.824-1.368-1.68-.384-3.384-.576-5.112-.576-2.208 0-4.368.096-6.48.288-2.112.192-4.32.48-6.624.864l-1.44 9.792c-.864 6.336-1.992 11.976-3.384 16.92-1.392 4.944-3.264 9.144-5.616 12.6-2.352 3.456-5.352 6.144-9 8.064-3.648 1.92-8.208 3.024-13.68 3.312-2.592.096-5.328-.144-8.208-.72s-5.448-1.56-7.704-2.952c-2.256-1.392-4.224-3.072-5.904-5.04-1.68-1.968-3.048-4.152-4.104-6.552-1.056-2.4-1.776-4.896-2.16-7.488-.192-.576-.192-1.152 0-1.728-.192-4.416.624-8.424 2.448-12.024 1.824-3.6 4.464-6.888 7.92-9.864 3.456-2.976 7.656-5.688 12.6-8.136 4.944-2.448 10.488-4.728 16.632-6.84 1.536-8.928 3.168-17.112 4.896-24.552 1.728-7.44 3.744-13.464 6.048-18.072zM301.472 95.184c3.648-.288 6.576-2.16 8.784-5.616l4.608-29.52c-.576-.192-1.056-.288-1.44-.288-2.304 0-4.608.984-6.912 2.952-2.304 1.968-4.344 4.392-6.12 7.272-1.776 2.88-3.24 5.88-4.392 9-1.152 3.12-1.728 5.832-1.728 8.136.192 2.976.888 5.064 2.088 6.264 1.2 1.2 2.904 1.8 5.112 1.8zm122.256 18.432c2.304 0 4.248-1.176 5.832-3.528 1.584-2.352 2.952-5.328 4.104-8.928 1.152-3.6 2.088-7.512 2.808-11.736.72-4.224 1.368-8.16 1.944-11.808-1.44.096-3 .336-4.68.72-1.68.384-3.432.912-5.256 1.584-1.824.672-3.6 1.488-5.328 2.448-1.728.96-3.36 2.064-4.896 3.312-2.304 1.92-4.296 4.392-5.976 7.416-1.68 3.024-2.28 6.168-1.8 9.432.48 3.264 1.824 5.928 4.032 7.992s5.28 3.096 9.216 3.096zm-214.61-27.728c.036-.497.077-.998.122-1.504.336-3.744.888-7.44 1.656-11.088.768-3.648 1.68-7.152 2.736-10.512 1.056-3.36 2.232-6.312 3.528-8.856 1.296-2.544 2.64-4.584 4.032-6.12 1.392-1.536 2.808-2.304 4.248-2.304 1.152 0 2.448.096 3.888.288 1.44.192 2.784.504 4.032.936 1.248.432 2.304.984 3.168 1.656.864.672 1.392 1.44 1.584 2.304.096.384-.048 1.008-.432 1.872-.384.864-.816 1.848-1.296 2.952-.48 1.104-.984 2.28-1.512 3.528-.528 1.248-.888 2.448-1.08 3.6 1.536-1.824 3.216-3.576 5.04-5.256 1.824-1.68 3.696-3.144 5.616-4.392 1.92-1.248 3.864-2.256 5.832-3.024 1.968-.768 3.816-1.152 5.544-1.152 1.44 0 2.904.192 4.392.576 1.488.384 2.88.936 4.176 1.656 1.296.72 2.4 1.608 3.312 2.664.912 1.056 1.464 2.304 1.656 3.744.288 2.304-.144 5.088-1.296 8.352-1.152 3.264-2.448 6.624-3.888 10.08-1.44 3.456-2.712 6.792-3.816 10.008-1.104 3.216-1.512 5.88-1.224 7.992.192 1.632 1.152 2.448 2.88 2.448 1.824 0 4.08-.936 6.768-2.808 2.042-1.422 3.946-3.19 5.71-5.305.31-3.65 1.383-7.45 3.218-11.4 2.208-4.75 5.064-9.095 8.568-13.03 3.504-3.937 7.416-7.2 11.736-9.793 4.32-2.592 8.544-3.888 12.672-3.888.768 0 1.536.048 2.304.144.768.096 1.392.192 1.872.288.288-1.728.768-3.12 1.44-4.176.672-1.056 1.368-1.896 2.088-2.52.72-.624 1.44-1.08 2.16-1.368.72-.288 1.32-.48 1.8-.576.96 0 2.352.192 4.176.576 1.824.384 3.648.936 5.472 1.656 1.824.72 3.432 1.584 4.824 2.592s2.088 2.184 2.088 3.528v1.872c-.384 2.592-.864 5.544-1.44 8.856-.576 3.312-1.32 7.128-2.232 11.448-.912 4.32-2.016 9.312-3.312 14.976-1.296 5.664-2.808 12.192-4.536 19.584-1.344 5.472-2.952 10.584-4.824 15.336-1.872 4.752-4.2 8.904-6.984 12.456-2.784 3.552-6.144 6.36-10.08 8.424-3.936 2.064-8.544 3.096-13.824 3.096-2.592 0-5.328-.456-8.208-1.368-2.88-.912-5.568-2.112-8.064-3.6-2.496-1.488-4.56-3.24-6.192-5.256-1.632-2.016-2.448-4.176-2.448-6.48 0-1.152.384-2.424 1.152-3.816.768-1.392 1.8-2.688 3.096-3.888 1.296-1.2 2.712-2.232 4.248-3.096 1.536-.864 3.12-1.344 4.752-1.44 1.44.576 2.544 1.704 3.312 3.384.768 1.68 1.656 3.408 2.664 5.184 1.008 1.776 2.376 3.36 4.104 4.752 1.728 1.392 4.272 2.088 7.632 2.088 1.824 0 3.336-.864 4.536-2.592 1.2-1.728 2.208-3.984 3.024-6.768.816-2.784 1.464-5.904 1.944-9.36l1.44-10.368c-1.92 1.536-4.272 2.976-7.056 4.32-2.784 1.344-5.52 2.016-8.208 2.016-2.592 0-5.04-.528-7.344-1.584-2.304-1.056-4.32-2.472-6.048-4.248-1.457-1.498-2.66-3.218-3.604-5.16-.712.625-1.454 1.24-2.228 1.848-3.12 2.448-6.48 4.488-10.08 6.12-3.6 1.632-6.888 2.448-9.864 2.448-4.032 0-7.392-.84-10.08-2.52-2.688-1.68-4.32-4.104-4.896-7.272-.384-2.496-.12-5.352.792-8.568.912-3.216 1.944-6.36 3.096-9.432 1.152-3.072 2.232-5.928 3.24-8.568 1.008-2.64 1.416-4.632 1.224-5.976-1.344-.288-2.832-.144-4.464.432-2.976 1.056-5.472 3.12-7.488 6.192s-3.648 6.528-4.896 10.368c-1.248 3.84-2.184 7.704-2.808 11.592-.624 3.888-.984 7.128-1.08 9.72-.096 1.44-.696 2.424-1.8 2.952s-3.096.792-5.976.792c-.768 0-2.04-.384-3.816-1.152-1.776-.768-3.288-2.496-4.536-5.184-.48-1.056-.864-2.256-1.152-3.6-.027-.125-.053-.25-.078-.378-.348.32-.707.64-1.074.954-2.688 2.304-5.688 4.272-9 5.904-3.312 1.632-6.6 2.688-9.864 3.168-1.344.096-2.64.096-3.888 0-5.28-.288-8.64-2.544-10.08-6.768-.384-1.056-.624-2.112-.72-3.168-3.264 3.264-6.672 5.856-10.224 7.776-3.552 1.92-7.008 2.88-10.368 2.88-4.128 0-7.392-1.2-9.792-3.6-2.2-2.2-3.633-5.044-4.3-8.533-2.207 2.485-4.853 4.777-7.94 6.878-3.456 2.352-7.152 4.296-11.088 5.832-3.936 1.536-7.488 2.304-10.656 2.304-5.088-.384-9.024-2.208-11.808-5.472-2.784-3.264-5.184-7.44-7.2-12.528-1.344-3.36-2.568-6.456-3.672-9.288s-2.352-5.376-3.744-7.632c-1.392-2.256-3-4.176-4.824-5.76-1.824-1.584-4.176-2.808-7.056-3.672-.96 4.896-1.68 9.936-2.16 15.12-.48 5.184-.768 11.04-.864 17.568.096 2.496-.36 4.464-1.368 5.904-1.008 1.44-2.352 2.4-4.032 2.88-1.68.48-3.528.504-5.544.072-2.016-.432-3.912-1.248-5.688-2.448-1.776-1.2-3.312-2.784-4.608-4.752-1.296-1.968-2.04-4.248-2.232-6.84-.192-3.936.192-8.448 1.152-13.536.96-5.088 2.016-10.464 3.168-16.128l1.44-6.48c1.632-6.816 3.816-13.944 6.552-21.384 2.736-7.44 5.88-14.184 9.432-20.232.48-.768.912-1.512 1.296-2.232.384-.72.816-1.464 1.296-2.232-1.248-.096-3-.264-5.256-.504-2.256-.24-4.92-.36-7.992-.36-4.608 0-9.288.528-14.04 1.584-4.752 1.056-9 2.712-12.744 4.968-3.744 2.256-6.672 5.136-8.784 8.64-2.112 3.504-2.784 7.704-2.016 12.6.192 1.44.528 2.568 1.008 3.384.48.816.936 1.512 1.368 2.088.432.576.84 1.104 1.224 1.584s.624 1.008.72 1.584c.288 1.44.048 2.712-.72 3.816-.768 1.104-1.8 2.04-3.096 2.808-1.296.768-2.688 1.344-4.176 1.728-1.488.384-2.808.576-3.96.576-2.304 0-4.416-1.104-6.336-3.312-1.92-2.208-3.216-5.328-3.888-9.36-1.056-6.624-.216-12.528 2.52-17.712 2.736-5.184 6.792-9.624 12.168-13.32 5.376-3.696 11.784-6.648 19.224-8.856 7.44-2.208 15.336-3.6 23.688-4.176C61.184.96 63.416.816 65.672.72 67.928.624 70.304.576 72.8.576c1.728 0 3.744.144 6.048.432 2.304.288 4.56.792 6.768 1.512s4.128 1.752 5.76 3.096c1.632 1.344 2.64 3.072 3.024 5.184.096.48.096 1.032 0 1.656-.096.624-.24 1.08-.432 1.368-3.552 4.608-6.384 9.048-8.496 13.32s-3.84 8.232-5.184 11.88l-2.304 7.2c-.576 1.632-1.224 3.72-1.944 6.264s-1.368 4.872-1.944 6.984h1.08c.336 0 .744-.048 1.224-.144 1.056 0 2.16-.24 3.312-.72 2.592-1.728 5.064-4.032 7.416-6.912 2.352-2.88 4.68-5.952 6.984-9.216 2.304-3.264 4.656-6.6 7.056-10.008 2.4-3.408 5.016-6.552 7.848-9.432 2.832-2.88 5.904-5.304 9.216-7.272 3.312-1.968 7.032-3.192 11.16-3.672 1.44-.192 3.24-.072 5.4.36s4.056 1.032 5.688 1.8c2.208.96 3.456 1.968 3.744 3.024.192 1.44-1.2 2.688-4.176 3.744-2.976 1.44-5.664 3.408-8.064 5.904-2.4 2.496-4.752 5.208-7.056 8.136-2.304 2.928-4.632 5.952-6.984 9.072-2.352 3.12-4.944 6.048-7.776 8.784-2.832 2.736-6 5.136-9.504 7.2-3.504 2.064-7.56 3.528-12.168 4.392 3.072.864 5.616 2.136 7.632 3.816 2.016 1.68 3.984 3.624 5.904 5.832 1.728 2.208 3.336 4.752 4.824 7.632s3 5.664 4.536 8.352c1.536 2.688 3.144 4.968 4.824 6.84 1.68 1.872 3.528 2.856 5.544 2.952 2.784-.192 5.712-1.368 8.784-3.528 3.072-2.16 5.52-4.776 7.344-7.848.288-.48.792-.984 1.512-1.512.09-.065.177-.127.264-.184.08-2.134.255-4.377.528-6.728.384-3.312.96-6.672 1.728-10.08.768-3.408 1.8-6.552 3.096-9.432 1.296-2.88 2.88-5.304 4.752-7.272 1.872-1.968 4.056-3.192 6.552-3.672 3.552-.288 6.288.048 8.208 1.008 1.632.48 2.544 1.392 2.736 2.736.288.864.384 1.776.288 2.736 0 2.4-.36 4.776-1.08 7.128-.72 2.352-1.56 4.92-2.52 7.704s-1.944 5.952-2.952 9.504c-1.008 3.552-1.8 7.68-2.376 12.384.192 1.632 1.2 2.448 3.024 2.448 2.784 0 5.136-1.368 7.056-4.104 1.92-2.736 3.552-5.928 4.896-9.576 1.728-4.704 3.12-8.976 4.176-12.816s2.136-7.152 3.24-9.936 2.304-4.992 3.6-6.624c1.296-1.632 3-2.592 5.112-2.88 2.016-.192 4.368.048 7.056.72 1.44.384 2.736.96 3.888 1.728 1.152.768 1.824 1.776 2.016 3.024.192 2.88-.168 6.048-1.08 9.504-.912 3.456-1.992 6.936-3.24 10.44-1.248 3.504-2.448 6.864-3.6 10.08-1.152 3.216-1.92 6.024-2.304 8.424.288 1.632 1.392 2.448 3.312 2.448 1.728 0 3.768-.816 6.12-2.448 2.216-1.537 4.623-4.012 7.222-7.424zM163.4 233.65c-.9-3-2.2-5.825-3.9-8.475-1.7-2.65-3.625-5.2-5.775-7.65-2.15-2.45-4.35-4.925-6.6-7.425s-4.375-5.075-6.375-7.725c-2-2.65-3.775-5.475-5.325-8.475-1.55-3-2.575-6.3-3.075-9.9-.7-4-.575-7.75.375-11.25s2.65-6.575 5.1-9.225c2.45-2.65 5.6-4.775 9.45-6.375 3.85-1.6 8.325-2.55 13.425-2.85 1.8-.2 3.575-.275 5.325-.225 1.75.05 3.475.175 5.175.375 6.5.9 11.75 3.025 15.75 6.375s6.4 7.425 7.2 12.225c.4 2.7.25 5.15-.45 7.35-.7 2.2-1.7 4.075-3 5.625-1.3 1.55-2.775 2.75-4.425 3.6-1.65.85-3.125 1.275-4.425 1.275-1 0-2.325-.275-3.975-.825-1.65-.55-3.25-1.225-4.8-2.025-1.55-.8-2.9-1.725-4.05-2.775-1.15-1.05-1.775-2.075-1.875-3.075.2-.6.575-1.175 1.125-1.725s1.175-1.15 1.875-1.8c.7-.65 1.475-1.4 2.325-2.25.85-.85 1.675-1.975 2.475-3.375-.4-1.4-1.525-2.775-3.375-4.125S166.9 166.9 163.1 166.9c-1.6 0-3.15.225-4.65.675-1.5.45-2.8 1.1-3.9 1.95-1.1.85-1.95 1.85-2.55 3-.6 1.15-.8 2.425-.6 3.825.4 2.4 1.675 5.2 3.825 8.4 2.15 3.2 5.675 7.55 10.575 13.05 6.6 7.1 11.875 13.175 15.825 18.225 3.95 5.05 6.325 9.875 7.125 14.475.8 5.4.45 10.575-1.05 15.525-1.5 4.95-4.225 9.3-8.175 13.05-3.95 3.75-9.175 6.75-15.675 9s-14.3 3.375-23.4 3.375c-7.1 0-13.5-.9-19.2-2.7-5.7-1.8-10.625-4.2-14.775-7.2s-7.5-6.425-10.05-10.275c-2.55-3.85-4.125-7.875-4.725-12.075-.5-3.4-.3-6.825.6-10.275.9-3.45 2.4-6.6 4.5-9.45 2.1-2.85 4.75-5.25 7.95-7.2 3.2-1.95 6.85-3.125 10.95-3.525 1.1-.2 2.375-.275 3.825-.225 1.45.05 2.875.175 4.275.375 2.3.5 4.425 1.4 6.375 2.7 1.95 1.3 3.125 3.1 3.525 5.4.3 2-.4 3.35-2.1 4.05-1.7.7-3.7 1.25-6 1.65-2.2.3-4.35.8-6.45 1.5-2.1.7-3.925 1.65-5.475 2.85-1.55 1.2-2.75 2.65-3.6 4.35-.85 1.7-1.125 3.7-.825 6 .4 2.9 1.6 5.625 3.6 8.175 2 2.55 4.475 4.8 7.425 6.75 2.95 1.95 6.3 3.475 10.05 4.575 3.75 1.1 7.575 1.65 11.475 1.65 3.2 0 6.175-.45 8.925-1.35 2.75-.9 5.15-2.15 7.2-3.75s3.625-3.55 4.725-5.85c1.1-2.3 1.6-4.85 1.5-7.65 0-1.9-.25-4-.75-6.3zm306.555 8.25c-.665 1.3-1.476 2.6-2.43 3.9-2.35 3.2-5.35 6.125-9 8.775-3.65 2.65-7.775 4.8-12.375 6.45-4.6 1.65-9.4 2.475-14.4 2.475-3.6 0-6.975-.475-10.125-1.425-3.15-.95-5.925-2.325-8.325-4.125-2.4-1.8-4.4-3.95-6-6.45-.55-.858-1.04-1.758-1.47-2.698-.183.2-.367.398-.555.598-2.35 2.5-5.075 4.775-8.175 6.825-3.1 2.05-6.425 3.7-9.975 4.95s-7.225 1.875-11.025 1.875c-3.8 0-6.775-.775-8.925-2.325-2.15-1.55-3.425-3.625-3.825-6.225-.1-.5-.175-1.125-.225-1.875-.05-.75.05-1.475.3-2.175.25-.7.65-1.3 1.2-1.8.55-.5 1.375-.8 2.475-.9 1.5-1.7 2.825-3.9 3.975-6.6 1.15-2.7 2.075-5.4 2.775-8.1.7-2.7 1.2-5.175 1.5-7.425.3-2.25.4-3.775.3-4.575-.2-1.1-.475-2-.825-2.7-.35-.7-1.025-1.05-2.025-1.05-1.7-.1-3.45.7-5.25 2.4-1.8 1.7-3.3 3.7-4.5 6-2.3 3.7-4.075 7.725-5.325 12.075s-2.15 8.95-2.7 13.8c-.55 4.85-.8 9.9-.75 15.15.05 5.25.275 10.625.675 16.125.2 2.6.575 4.85 1.125 6.75.55 1.9.875 3.85.975 5.85.4 2.6-.15 4.45-1.65 5.55-1.5 1.1-3.4 1.65-5.7 1.65-5.4 0-9.55-1.575-12.45-4.725-2.9-3.15-4.6-7.625-5.1-13.425-.3-4.6-.325-9.225-.075-13.875s.725-9.375 1.425-14.175c-2.7 2.1-5.7 3.775-9 5.025-3.3 1.25-6.8 1.875-10.5 1.875-3.8 0-6.825-.825-9.075-2.475-2.25-1.65-3.725-3.775-4.425-6.375-.1-.5-.2-1.125-.3-1.875-.1-.75-.075-1.475.075-2.175.15-.7.475-1.3.975-1.8s1.3-.8 2.4-.9c1.3-1.7 2.475-3.925 3.525-6.675 1.05-2.75 1.95-5.5 2.7-8.25.75-2.75 1.275-5.275 1.575-7.575.3-2.3.35-3.85.15-4.65-.2-1.1-.525-2-.975-2.7-.45-.7-1.175-1.05-2.175-1.05-1.7-.1-3.35.7-4.95 2.4s-2.95 3.7-4.05 6c-2.6 5-4.325 10.425-5.175 16.275-.85 5.85-1.175 12.05-.975 18.6.2 6.55.775 13.3 1.725 20.25.95 6.95 1.975 13.925 3.075 20.925.7 2.6.35 4.45-1.05 5.55-1.4 1.1-3.2 1.65-5.4 1.65-5.1 0-9.225-1.675-12.375-5.025-3.15-3.35-5.225-7.925-6.225-13.725-.6-4.3-.975-8.825-1.125-13.575-.15-4.75-.125-9.6.075-14.55.105-2.594.25-5.18.438-7.76-.194.162-.39.324-.588.485-3.2 2.6-6.625 4.8-10.275 6.6-3.65 1.8-6.975 2.7-9.975 2.7-4.5 0-7.675-.9-9.525-2.7-1.85-1.8-3.075-4.65-3.675-8.55l-.04-.265c-.968.946-2.005 1.86-3.11 2.74-3.2 2.55-6.725 4.675-10.575 6.375-3.85 1.7-7.575 2.55-11.175 2.55-3.4 0-6.4-.95-9-2.85-2.6-1.9-4.2-5-4.8-9.3-.3-2-.325-5.525-.075-10.575.25-5.05.775-10.8 1.575-17.25.8-6.45 1.9-13.2 3.3-20.25 1.4-7.05 3.125-13.575 5.175-19.575s4.425-11.075 7.125-15.225 5.8-6.525 9.3-7.125c1.4-.1 2.9.1 4.5.6s3.1 1.15 4.5 1.95c1.8.8 3.425 1.95 4.875 3.45 1.45 1.5 2.325 3.1 2.625 4.8.2.9.125 1.85-.225 2.85s-1.025 1.95-2.025 2.85c-1.7 1.9-3.425 4.625-5.175 8.175-1.75 3.55-3.475 7.525-5.175 11.925-1.7 4.4-3.3 8.975-4.8 13.725s-2.775 9.3-3.825 13.65c-1.05 4.35-1.825 8.3-2.325 11.85-.5 3.55-.6 6.275-.3 8.175.2 1.3.625 2.3 1.275 3 .65.7 1.675 1.05 3.075 1.05 1.6 0 3.375-.675 5.325-2.025 1.95-1.35 3.825-2.925 5.625-4.725 1.393-1.393 2.71-2.77 3.955-4.135.076-1.358.182-2.755.32-4.19.35-3.65.925-7.375 1.725-11.175.8-3.8 1.875-7.275 3.225-10.425 1.35-3.15 2.975-5.8 4.875-7.95 1.9-2.15 4.15-3.425 6.75-3.825 2.6-.3 4.85-.2 6.75.3 1.9.5 3.2 1.25 3.9 2.25.7 1 1.15 1.95 1.35 2.85.1 1.9.025 3.625-.225 5.175-.25 1.55-.65 3.15-1.2 4.8-.55 1.65-1.175 3.425-1.875 5.325-.7 1.9-1.45 4.2-2.25 6.9-.7 2.3-1.45 4.975-2.25 8.025-.8 3.05-1.3 6.175-1.5 9.375.2 1.6 1.15 2.4 2.85 2.4 2.1 0 4.575-1.325 7.425-3.975 1.97-1.832 4-3.867 6.09-6.106.236-1.976.48-3.916.735-5.82.6-5.1 1.275-9.95 2.025-14.55.75-4.6 1.7-8.65 2.85-12.15 1.15-3.5 2.575-6.3 4.275-8.4 1.7-2.1 3.75-3.15 6.15-3.15.7 0 1.575.125 2.625.375s2.1.6 3.15 1.05c1.05.45 2 1.025 2.85 1.725.85.7 1.375 1.55 1.575 2.55.1.3-.05.875-.45 1.725-.4.85-.825 1.825-1.275 2.925-.45 1.1-.875 2.2-1.275 3.3-.4 1.1-.55 2.05-.45 2.85 2.3-2.9 4.725-5.3 7.275-7.2 2.55-1.9 5.175-3.05 7.875-3.45 2.8-.3 5.4-.05 7.8.75 2.7.8 4.8 2.125 6.3 3.975s2.55 4.125 3.15 6.825c.8 3.2.975 6.75.525 10.65-.45 3.9-1.15 7.65-2.1 11.25-.95 3.6-2.05 6.8-3.3 9.6s-2.325 4.65-3.225 5.55c2.3-.2 4.3-.775 6-1.725 1.7-.95 3.2-2.15 4.5-3.6 1.3-1.45 2.4-3.1 3.3-4.95.9-1.85 1.75-3.825 2.55-5.925 1.8-8.1 3.775-15.275 5.925-21.525 2.15-6.25 4.725-10.925 7.725-14.025.7-.5 1.425-.9 2.175-1.2.75-.3 1.725-.45 2.925-.45.7 0 1.575.1 2.625.3 1.05.2 2.1.525 3.15.975 1.05.45 1.95 1.025 2.7 1.725.75.7 1.225 1.5 1.425 2.4 0 .3-.225.875-.675 1.725-.45.85-.95 1.825-1.5 2.925-.55 1.1-1.05 2.225-1.5 3.375-.45 1.15-.625 2.075-.525 2.775 2.6-3.2 5.4-5.825 8.4-7.875s6.2-3.075 9.6-3.075c3.5 0 6.275.65 8.325 1.95 2.05 1.3 3.575 3.1 4.575 5.4.8 1.8 1.3 4 1.5 6.6.3 3.2.1 6.625-.6 10.275-.7 3.65-1.575 7.1-2.625 10.35S388.85 241.5 387.65 244c-1.2 2.5-2.2 4.15-3 4.95 4.9-.5 9.075-2.35 12.525-5.55 2.152-1.996 4.216-4.186 6.192-6.57-.095-2.697.04-5.456.408-8.28.65-5 2.125-9.5 4.425-13.5 1.2-2.1 2.725-4.1 4.575-6 1.85-1.9 4.05-3.575 6.6-5.025 2.55-1.45 5.475-2.6 8.775-3.45 3.3-.85 6.95-1.275 10.95-1.275 5.7 0 10.075 1.175 13.125 3.525 3.05 2.35 4.925 5.475 5.625 9.375.5 3.6-.05 6.975-1.65 10.125-1.6 3.15-3.925 5.9-6.975 8.25-3.05 2.35-6.65 4.225-10.8 5.625-4.15 1.4-8.525 2.1-13.125 2.1.3 3.4 1.3 6.175 3 8.325 1.7 2.15 4.65 3.375 8.85 3.675 6-.2 11.425-2.05 16.275-5.55 4.022-2.902 7.614-6.355 10.776-10.358 1.362-2.335 2.62-4.682 3.775-7.042 2.35-4.8 3.725-10.3 4.125-16.5-.9-.7-1.9-1.775-3-3.225-1.1-1.45-1.75-2.825-1.95-4.125-.3-3-.2-5.7.3-8.1.5-2.4 1.25-4.45 2.25-6.15 1-1.7 2.2-3.025 3.6-3.975 1.4-.95 2.85-1.475 4.35-1.575 1.1 0 2.45.15 4.05.45 1.6.3 3.2.7 4.8 1.2 1.7.5 3.325 1.225 4.875 2.175 1.55.95 2.425 1.975 2.625 3.075.1.7-.15 1.5-.75 2.4-.6.9-1.325 1.875-2.175 2.925-.85 1.05-1.675 2.175-2.475 3.375-.8 1.2-1.35 2.45-1.65 3.75.6.5 1.375.95 2.325 1.35.95.4 1.975.725 3.075.975s2.225.425 3.375.525c1.15.1 2.175.15 3.075.15 1.6 0 3.175-.325 4.725-.975 1.55-.65 2.775-.975 3.675-.975 1 0 2.1.225 3.3.675 1.2.45 2.275 1.05 3.225 1.8.95.75 1.775 1.575 2.475 2.475.7.9 1.1 1.75 1.2 2.55.4 2.6.1 5.6-.9 9-1 3.4-2.15 6.775-3.45 10.125-1.3 3.35-2.475 6.5-3.525 9.45-1.05 2.95-1.425 5.225-1.125 6.825 0 1.6.95 2.4 2.85 2.4 1.7 0 4-.975 6.9-2.925 2.06-1.385 4.497-3.69 7.313-6.916 1.387-2.053 2.8-4.248 4.237-6.585 2-3.25 4.2-6.225 6.6-8.925 2.4-2.7 5.025-4.85 7.875-6.45 2.85-1.6 6.025-2.1 9.525-1.5 5.4.7 10.475 1.375 15.225 2.025 4.75.65 9.575 1.225 14.475 1.725 7 .6 13.525.775 19.575.525 6.05-.25 10.725-1.075 14.025-2.475 1.9-.4 3.525-1.15 4.875-2.25s2.525-2.35 3.525-3.75 1.8-2.9 2.4-4.5c.6-1.6 1.15-3.15 1.65-4.65.7-1.5 1.45-2.85 2.25-4.05.8-1.2 1.8-1.7 3-1.5 1.9.3 3.475 1.6 4.725 3.9 1.25 2.3 1.875 5.1 1.875 8.4 0 3.7-.925 7.525-2.775 11.475-1.85 3.95-4.75 7.575-8.7 10.875-3.95 3.3-9.05 6-15.3 8.1-6.25 2.1-13.775 3.15-22.575 3.15-1.4 0-3.3-.225-5.7-.675-2.4-.45-5.05-.975-7.95-1.575-2.9-.6-5.925-1.3-9.075-2.1-3.15-.8-6.15-1.5-9-2.1-2.85-.6-5.45-1.125-7.8-1.575-2.35-.45-4.175-.675-5.475-.675-1.6 0-3.3.55-5.1 1.65-1.8 1.1-3.4 2.5-4.8 4.2-1.3 1.7-2.725 3.325-4.275 4.875-.994.994-1.958 1.896-2.89 2.705-1.752 2.144-3.788 4.192-6.11 6.145-3.15 2.65-6.55 4.85-10.2 6.6-3.65 1.75-7.025 2.625-10.125 2.625-8.8 0-14.1-3.55-15.9-10.65-.4-2.5-.075-5.25.975-8.25s2.25-5.975 3.6-8.925c1.35-2.95 2.525-5.8 3.525-8.55 1-2.75 1.25-5.125.75-7.125-.2-1.3-.85-2.175-1.95-2.625-1.1-.45-2.4-.75-3.9-.9-1.5-.15-3-.225-4.5-.225s-2.7-.15-3.6-.45c-.8 3.2-1.975 6.6-3.525 10.2-1.55 3.6-3.225 6.975-5.025 10.125-1.29 2.256-2.604 4.28-3.945 6.076zM264.95 192.25c-2.4-.1-4.575-.775-6.525-2.025-1.95-1.25-3.325-3.575-4.125-6.975-.3-2.7-.225-5.15.225-7.35.45-2.2 1.15-4.125 2.1-5.775.95-1.65 2.1-2.925 3.45-3.825 1.35-.9 2.775-1.35 4.275-1.35 1.2 0 2.675.2 4.425.6 1.75.4 3.45.95 5.1 1.65 1.65.7 3.1 1.55 4.35 2.55 1.25 1 1.975 2.1 2.175 3.3.2 1.2-.55 2.65-2.25 4.35-1.2 1.2-2.25 2.65-3.15 4.35-.9 1.7-1.75 3.325-2.55 4.875-.8 1.55-1.625 2.875-2.475 3.975-.85 1.1-1.775 1.65-2.775 1.65h-2.25zM424.7 229.3c2.3.3 4.525.025 6.675-.825 2.15-.85 4-2.025 5.55-3.525 1.55-1.5 2.75-3.225 3.6-5.175.85-1.95 1.125-3.825.825-5.625-.2-1.2-.625-2.2-1.275-3-.65-.8-1.675-1.2-3.075-1.2-1.4 0-2.775.5-4.125 1.5s-2.6 2.375-3.75 4.125-2.125 3.8-2.925 6.15c-.8 2.35-1.3 4.875-1.5 7.575z"/></g></svg>