<?xml version="1.0" encoding="UTF-8"?>
<svg width="642px" height="309px" viewBox="0 0 642 309" version="1.1" xmlns="http://www.w3.org/2000/svg" xmlns:xlink="http://www.w3.org/1999/xlink">
    <!-- Generator: Sketch 46 (44423) - http://www.bohemiancoding.com/sketch -->
    <title>Group</title>
    <desc>Created with Sketch.</desc>
    <defs></defs>
    <g id="Page-1" stroke="none" stroke-width="1" fill="none" fill-rule="evenodd">
        <g id="Group" fill="#000000">
            <path d="M576.944,84.672 C576.944,87.1680125 576.104008,89.7359868 574.424,92.376 C572.743992,95.0160132 570.560013,97.4879885 567.872,99.792 C565.183987,102.096012 562.184017,104.063992 558.872,105.696 C555.559983,107.328008 552.272016,108.383998 549.008,108.864 C547.663993,108.96 546.368006,108.96 545.12,108.864 C539.839974,108.575999 536.480007,106.320021 535.04,102.096 C534.655998,101.039995 534.416,99.9840053 534.32,98.928 C531.055984,102.192016 527.648018,104.78399 524.096,106.704 C520.543982,108.62401 517.088017,109.584 513.728,109.584 C509.599979,109.584 506.336012,108.384012 503.936,105.984 C501.535988,103.583988 500.048003,100.41602 499.472,96.48 C499.183999,94.6559909 499.04,92.3040144 499.04,89.424 C499.04,86.5439856 499.231998,83.4480166 499.616,80.136 C500.000002,76.8239834 500.575996,73.464017 501.344,70.056 C502.112004,66.647983 503.143994,63.5040144 504.44,60.624 C505.736006,57.7439856 507.319991,55.3200098 509.192,53.352 C511.064009,51.3839902 513.247988,50.1600024 515.744,49.68 C519.296018,49.3919986 522.03199,49.7279952 523.952,50.688 C525.584008,51.1680024 526.495999,52.0799933 526.688,53.424 C526.976001,54.2880043 527.072,55.1999952 526.976,56.16 C526.976,58.560012 526.616004,60.9359882 525.896,63.288 C525.175996,65.6400118 524.336005,68.2079861 523.376,70.992 C522.415995,73.7760139 521.432005,76.9439822 520.424,80.496 C519.415995,84.0480178 518.624003,88.1759765 518.048,92.88 C518.240001,94.5120082 519.247991,95.328 521.072,95.328 C523.856014,95.328 526.20799,93.9600137 528.128,91.224 C530.04801,88.4879863 531.679993,85.2960182 533.024,81.648 C534.752009,76.9439765 536.143995,72.6720192 537.2,68.832 C538.256005,64.9919808 539.335994,61.6800139 540.44,58.896 C541.544006,56.1119861 542.743994,53.9040082 544.04,52.272 C545.336006,50.6399918 547.039989,49.6800014 549.152,49.392 C551.16801,49.199999 553.519987,49.4399966 556.208,50.112 C557.648007,50.4960019 558.943994,51.0719962 560.096,51.84 C561.248006,52.6080038 561.919999,53.6159938 562.112,54.864 C562.304001,57.7440144 561.944005,60.9119827 561.032,64.368 C560.119995,67.8240173 559.040006,71.3039825 557.792,74.808 C556.543994,78.3120175 555.344006,81.6719839 554.192,84.888 C553.039994,88.1040161 552.272002,90.911988 551.888,93.312 C552.176001,94.9440082 553.27999,95.76 555.2,95.76 C556.928009,95.76 558.967988,94.9440082 561.32,93.312 C563.672012,91.6799918 566.239986,88.9920187 569.024,85.248 C569.792004,84.3839957 570.535996,83.4240053 571.256,82.368 C571.976004,81.3119947 572.623997,80.784 573.2,80.784 C574.064004,80.8800005 574.927996,81.2639966 575.792,81.936 C576.656004,82.6080034 577.04,83.5199942 576.944,84.672 Z M449.936,20.016 C446.959985,19.4399971 444.320012,19.056001 442.016,18.864 C439.711988,18.671999 437.984006,18.480001 436.832,18.288 C431.263972,18.288 425.696028,18.8159947 420.128,19.872 C414.559972,20.9280053 409.664021,22.6079885 405.44,24.912 C401.215979,27.2160115 397.928012,30.263981 395.576,34.056 C393.223988,37.848019 392.479996,42.4799726 393.344,47.952 C393.536001,49.2960067 393.823998,50.3519962 394.208,51.12 C394.592002,51.8880038 394.999998,52.5119976 395.432,52.992 C395.864002,53.4720024 396.271998,53.9279978 396.656,54.36 C397.040002,54.7920022 397.28,55.3439966 397.376,56.016 C397.568001,57.5520077 397.256004,58.8959942 396.44,60.048 C395.623996,61.2000058 394.544007,62.1599962 393.2,62.928 C391.855993,63.6960038 390.392008,64.2719981 388.808,64.656 C387.223992,65.0400019 385.856006,65.232 384.704,65.232 C382.303988,65.232 380.168009,64.3200091 378.296,62.496 C376.423991,60.6719909 375.152003,57.6960206 374.48,53.568 C373.135993,45.4079592 373.999985,38.2800305 377.072,32.184 C380.144015,26.0879695 384.65597,21.0000204 390.608,16.92 C396.56003,12.8399796 403.54396,9.7200108 411.56,7.56 C419.57604,5.3999892 427.903957,4.0800024 436.544,3.6 C438.944012,3.40799904 441.319988,3.28800024 443.672,3.24 C446.024012,3.19199976 448.303989,3.21599952 450.512,3.312 C452.52801,3.40800048 455.191983,3.64799808 458.504,4.032 C461.816017,4.41600192 465.343981,4.79999808 469.088,5.184 C472.832019,5.56800192 476.527982,5.92799832 480.176,6.264 C483.824018,6.60000168 486.895988,6.768 489.392,6.768 C492.944018,6.768 495.823989,6.48000288 498.032,5.904 C500.04801,5.71199904 501.607994,5.20800408 502.712,4.392 C503.816006,3.57599592 505.039993,3.168 506.384,3.168 C509.168014,3.168 511.471991,4.43998728 513.296,6.984 C515.120009,9.52801272 516.271998,12.3839842 516.752,15.552 C517.136002,17.952012 517.016003,19.9439921 516.392,21.528 C515.767997,23.1120079 514.736007,24.407995 513.296,25.416 C511.855993,26.424005 510.080011,27.1439978 507.968,27.576 C505.855989,28.0080022 503.504013,28.224 500.912,28.224 C497.935985,28.224 494.264022,27.9120031 489.896,27.288 C485.527978,26.6639969 480.608027,25.8720048 475.136,24.912 C473.791993,26.8320096 472.496006,29.0639873 471.248,31.608 C469.999994,34.1520127 468.944004,36.6719875 468.08,39.168 C467.119995,41.9520139 466.208004,44.7359861 465.344,47.52 C464.479996,50.3040139 463.712003,53.1839851 463.04,56.16 C465.248011,55.967999 467.455989,55.8000007 469.664,55.656 C471.872011,55.5119993 474.079989,55.44 476.288,55.44 C481.568026,55.44 485.527987,56.3279911 488.168,58.104 C490.808013,59.8800089 492.559996,63.3119746 493.424,68.4 C493.808002,70.3200096 493.856001,72.0959918 493.568,73.728 C493.279999,75.3600082 492.608005,76.2239995 491.552,76.32 C490.495995,76.2239995 489.296007,75.9600022 487.952,75.528 C486.607993,75.0959978 485.168008,74.6160026 483.632,74.088 C482.095992,73.5599974 480.488008,73.1040019 478.808,72.72 C477.127992,72.3359981 475.424009,72.144 473.696,72.144 C471.487989,72.144 469.328011,72.239999 467.216,72.432 C465.103989,72.624001 462.896012,72.9119981 460.592,73.296 L459.152,83.088 C458.287996,89.4240317 457.160007,95.0639753 455.768,100.008 C454.375993,104.952025 452.504012,109.151983 450.152,112.608 C447.799988,116.064017 444.800018,118.75199 441.152,120.672 C437.503982,122.59201 432.944027,123.695999 427.472,123.984 C424.879987,124.08 422.144014,123.840003 419.264,123.264 C416.383986,122.687997 413.816011,121.704007 411.56,120.312 C409.303989,118.919993 407.336008,117.24001 405.656,115.272 C403.975992,113.30399 402.608005,111.120012 401.552,108.72 C400.495995,106.319988 399.776002,103.824013 399.392,101.232 C399.199999,100.655997 399.199999,100.080003 399.392,99.504 C399.199999,95.0879779 400.015991,91.080018 401.84,87.48 C403.664009,83.879982 406.303983,80.5920149 409.76,77.616 C413.216017,74.6399851 417.415975,71.9280122 422.36,69.48 C427.304025,67.0319878 432.847969,64.7520106 438.992,62.64 C440.528008,53.7119554 442.159991,45.5280372 443.888,38.088 C445.616009,30.6479628 447.631988,24.624023 449.936,20.016 Z M301.472,95.184 C305.120018,94.8959986 308.047989,93.0240173 310.256,89.568 L314.864,60.048 C314.287997,59.855999 313.808002,59.76 313.424,59.76 C311.119988,59.76 308.816012,60.7439902 306.512,62.712 C304.207988,64.6800098 302.168009,67.1039856 300.392,69.984 C298.615991,72.8640144 297.152006,75.8639844 296,78.984 C294.847994,82.1040156 294.272,84.8159885 294.272,87.12 C294.464001,90.0960149 295.159994,92.183994 296.36,93.384 C297.560006,94.584006 299.263989,95.184 301.472,95.184 Z M423.728,113.616 C426.032012,113.616 427.975992,112.440012 429.56,110.088 C431.144008,107.735988 432.511994,104.760018 433.664,101.16 C434.816006,97.559982 435.751996,93.6480211 436.472,89.424 C437.192004,85.1999789 437.839997,81.2640182 438.416,77.616 C436.975993,77.7120005 435.416008,77.9519981 433.736,78.336 C432.055992,78.7200019 430.304009,79.2479966 428.48,79.92 C426.655991,80.5920034 424.880009,81.4079952 423.152,82.368 C421.423991,83.3280048 419.792008,84.4319938 418.256,85.68 C415.951988,87.6000096 413.960008,90.0719849 412.28,93.096 C410.599992,96.1200151 409.999998,99.2639837 410.48,102.528 C410.960002,105.792016 412.303989,108.45599 414.512,110.52 C416.720011,112.58401 419.79198,113.616 423.728,113.616 Z M209.118288,85.8881105 C209.154042,85.3911205 209.194612,84.8897504 209.24,84.384 C209.576002,80.6399813 210.127996,76.9440182 210.896,73.296 C211.664004,69.6479818 212.575995,66.1440168 213.632,62.784 C214.688005,59.4239832 215.863994,56.4720127 217.16,53.928 C218.456006,51.3839873 219.799993,49.3440077 221.192,47.808 C222.584007,46.2719923 223.999993,45.504 225.44,45.504 C226.592006,45.504 227.887993,45.599999 229.328,45.792 C230.768007,45.984001 232.111994,46.2959978 233.36,46.728 C234.608006,47.1600022 235.663996,47.7119966 236.528,48.384 C237.392004,49.0560034 237.919999,49.8239957 238.112,50.688 C238.208,51.0720019 238.064002,51.6959957 237.68,52.56 C237.295998,53.4240043 236.864002,54.4079945 236.384,55.512 C235.903998,56.6160055 235.400003,57.7919938 234.872,59.04 C234.343997,60.2880062 233.984001,61.4879942 233.792,62.64 C235.328008,60.8159909 237.007991,59.0640084 238.832,57.384 C240.656009,55.7039916 242.52799,54.2400062 244.448,52.992 C246.36801,51.7439938 248.31199,50.7360038 250.28,49.968 C252.24801,49.1999962 254.095991,48.816 255.824,48.816 C257.264007,48.816 258.727993,49.0079981 260.216,49.392 C261.704007,49.7760019 263.095994,50.3279964 264.392,51.048 C265.688006,51.7680036 266.791995,52.6559947 267.704,53.712 C268.616005,54.7680053 269.167999,56.0159928 269.36,57.456 C269.648001,59.7600115 269.216006,62.5439837 268.064,65.808 C266.911994,69.0720163 265.616007,72.4319827 264.176,75.888 C262.735993,79.3440173 261.464006,82.6799839 260.36,85.896 C259.255994,89.1120161 258.847999,91.7759894 259.136,93.888 C259.328001,95.5200082 260.287991,96.336 262.016,96.336 C263.840009,96.336 266.095987,95.4000094 268.784,93.528 C270.82607,92.1058441 272.729605,90.337426 274.494639,88.2227134 C274.804785,84.5722846 275.877232,80.7727395 277.712,76.824 C279.920011,72.0719762 282.775982,67.7280197 286.28,63.792 C289.784018,59.8559803 293.695978,56.592013 298.016,54 C302.336022,51.407987 306.559979,50.112 310.688,50.112 C311.456004,50.112 312.223996,50.1599995 312.992,50.256 C313.760004,50.3520005 314.383998,50.4479995 314.864,50.544 C315.152001,48.8159914 315.631997,47.4240053 316.304,46.368 C316.976003,45.3119947 317.671996,44.4720031 318.392,43.848 C319.112004,43.2239969 319.831996,42.7680014 320.552,42.48 C321.272004,42.1919986 321.871998,42.0000005 322.352,41.904 C323.312005,41.904 324.703991,42.0959981 326.528,42.48 C328.352009,42.8640019 330.175991,43.4159964 332,44.136 C333.824009,44.8560036 335.431993,45.719995 336.824,46.728 C338.216007,47.736005 338.912,48.9119933 338.912,50.256 L338.912,52.128 C338.527998,54.720013 338.048003,57.6719834 337.472,60.984 C336.895997,64.2960166 336.152005,68.1119784 335.24,72.432 C334.327995,76.7520216 333.224006,81.7439717 331.928,87.408 C330.631994,93.0720283 329.120009,99.599963 327.392,106.992 C326.047993,112.464027 324.440009,117.575976 322.568,122.328 C320.695991,127.080024 318.368014,131.231982 315.584,134.784 C312.799986,138.336018 309.44002,141.14399 305.504,143.208 C301.56798,145.27201 296.960026,146.304 291.68,146.304 C289.087987,146.304 286.352014,145.848005 283.472,144.936 C280.591986,144.023995 277.904012,142.824007 275.408,141.336 C272.911988,139.847993 270.848008,138.09601 269.216,136.08 C267.583992,134.06399 266.768,131.904012 266.768,129.6 C266.768,128.447994 267.151996,127.176007 267.92,125.784 C268.688004,124.391993 269.719994,123.096006 271.016,121.896 C272.312006,120.695994 273.727992,119.664004 275.264,118.8 C276.800008,117.935996 278.383992,117.456 280.016,117.36 C281.456007,117.936003 282.559996,119.063992 283.328,120.744 C284.096004,122.424008 284.983995,124.151991 285.992,125.928 C287.000005,127.704009 288.367991,129.287993 290.096,130.68 C291.824009,132.072007 294.367983,132.768 297.728,132.768 C299.552009,132.768 301.063994,131.904009 302.264,130.176 C303.464006,128.447991 304.471996,126.192014 305.288,123.408 C306.104004,120.623986 306.751998,117.504017 307.232,114.048 L308.672,103.68 C306.75199,105.216008 304.400014,106.655993 301.616,108 C298.831986,109.344007 296.096013,110.016 293.408,110.016 C290.815987,110.016 288.368012,109.488005 286.064,108.432 C283.759988,107.375995 281.744009,105.960009 280.016,104.184 C278.558556,102.686071 277.357218,100.966218 276.411964,99.0244024 C275.700299,99.6491206 274.957645,100.264986 274.184,100.872 C271.063984,103.320012 267.704018,105.359992 264.104,106.992 C260.503982,108.624008 257.216015,109.44 254.24,109.44 C250.20798,109.44 246.848013,108.600008 244.16,106.92 C241.471987,105.239992 239.840003,102.816016 239.264,99.648 C238.879998,97.1519875 239.143995,94.2960161 240.056,91.08 C240.968005,87.8639839 241.999994,84.7200154 243.152,81.648 C244.304006,78.5759846 245.383995,75.7200132 246.392,73.08 C247.400005,70.4399868 247.808001,68.4480067 247.616,67.104 C246.271993,66.8159986 244.784008,66.9599971 243.152,67.536 C240.175985,68.5920053 237.68001,70.6559846 235.664,73.728 C233.64799,76.8000154 232.016006,80.2559808 230.768,84.096 C229.519994,87.9360192 228.584003,91.7999806 227.96,95.688 C227.335997,99.5760194 226.976,102.815987 226.88,105.408 C226.784,106.848007 226.184006,107.831997 225.08,108.36 C223.975994,108.888003 221.984014,109.152 219.104,109.152 C218.335996,109.152 217.064009,108.768004 215.288,108 C213.511991,107.231996 212.000006,105.504013 210.752,102.816 C210.271998,101.759995 209.888001,100.560007 209.6,99.216 C209.573239,99.0911138 209.547306,98.9649844 209.522203,98.8376119 C209.173556,99.1588808 208.815488,99.4770101 208.448,99.792 C205.759987,102.096012 202.760017,104.063992 199.448,105.696 C196.135983,107.328008 192.848016,108.383998 189.584,108.864 C188.239993,108.96 186.944006,108.96 185.696,108.864 C180.415974,108.575999 177.056007,106.320021 175.616,102.096 C175.231998,101.039995 174.992,99.9840053 174.896,98.928 C171.631984,102.192016 168.224018,104.78399 164.672,106.704 C161.119982,108.62401 157.664017,109.584 154.304,109.584 C150.175979,109.584 146.912012,108.384012 144.512,105.984 C142.312638,103.784638 140.87918,100.94036 140.211591,97.4510925 C138.005454,99.9348791 135.358944,102.227163 132.272,104.328 C128.815983,106.680012 125.12002,108.623992 121.184,110.16 C117.24798,111.696008 113.696016,112.464 110.528,112.464 C105.439975,112.079998 101.504014,110.256016 98.72,106.992 C95.9359861,103.727984 93.5360101,99.5520254 91.52,94.464 C90.1759933,91.1039832 88.9520055,88.0080142 87.848,85.176 C86.7439945,82.3439858 85.496007,79.8000113 84.104,77.544 C82.711993,75.2879887 81.1040091,73.3680079 79.28,71.784 C77.4559909,70.1999921 75.1040144,68.9760043 72.224,68.112 C71.2639952,73.0080245 70.5440024,78.0479741 70.064,83.232 C69.5839976,88.4160259 69.2960005,94.2719674 69.2,100.8 C69.2960005,103.296012 68.840005,105.263993 67.832,106.704 C66.823995,108.144007 65.4800084,109.103998 63.8,109.584 C62.1199916,110.064002 60.2720101,110.088002 58.256,109.656 C56.2399899,109.223998 54.3440089,108.408006 52.568,107.208 C50.7919911,106.007994 49.2560065,104.42401 47.96,102.456 C46.6639935,100.48799 45.920001,98.208013 45.728,95.616 C45.535999,91.6799803 45.9199952,87.1680254 46.88,82.08 C47.8400048,76.9919746 48.8959942,71.6160283 50.048,65.952 L51.488,59.472 C53.1200082,52.6559659 55.3039863,45.5280372 58.04,38.088 C60.7760137,30.6479628 63.9199822,23.9040302 67.472,17.856 C67.9520024,17.0879962 68.3839981,16.3440036 68.768,15.624 C69.1520019,14.9039964 69.5839976,14.1600038 70.064,13.392 C68.8159938,13.2959995 67.0640113,13.1280012 64.808,12.888 C62.5519887,12.6479988 59.8880154,12.528 56.816,12.528 C52.207977,12.528 47.5280238,13.0559947 42.776,14.112 C38.0239762,15.1680053 33.7760187,16.8239887 30.032,19.08 C26.2879813,21.3360113 23.3600106,24.2159825 21.248,27.72 C19.1359894,31.2240175 18.4639962,35.4239755 19.232,40.32 C19.424001,41.7600072 19.7599976,42.8879959 20.24,43.704 C20.7200024,44.5200041 21.1759978,45.2159971 21.608,45.792 C22.0400022,46.3680029 22.4479981,46.8959976 22.832,47.376 C23.2160019,47.8560024 23.4559995,48.3839971 23.552,48.96 C23.8400014,50.4000072 23.6000038,51.6719945 22.832,52.776 C22.0639962,53.8800055 21.0320065,54.8159962 19.736,55.584 C18.4399935,56.3520038 17.0480074,56.9279981 15.56,57.312 C14.0719926,57.6960019 12.7520058,57.888 11.6,57.888 C9.29598848,57.888 7.1840096,56.784011 5.264,54.576 C3.3439904,52.367989 2.04800336,49.2480202 1.376,45.216 C0.31999472,38.5919669 1.15998632,32.6880259 3.896,27.504 C6.63201368,22.3199741 10.6879731,17.8800185 16.064,14.184 C21.4400269,10.4879815 27.8479628,7.53601104 35.288,5.328 C42.7280372,3.11998896 50.6239582,1.72800288 58.976,1.152 C61.184011,0.95999904 63.4159887,0.81600048 65.672,0.72 C67.9280113,0.62399952 70.3039875,0.576 72.8,0.576 C74.5280086,0.576 76.5439885,0.71999856 78.848,1.008 C81.1520115,1.29600144 83.407989,1.7999964 85.616,2.52 C87.824011,3.2400036 89.7439918,4.27199328 91.376,5.616 C93.0080082,6.96000672 94.0159981,8.68798944 94.4,10.8 C94.4960005,11.2800024 94.4960005,11.8319969 94.4,12.456 C94.3039995,13.0800031 94.160001,13.5359986 93.968,13.824 C90.4159822,18.432023 87.5840106,22.8719786 85.472,27.144 C83.3599894,31.4160214 81.6320067,35.3759818 80.288,39.024 L77.984,46.224 C77.4079971,47.8560082 76.7600036,49.9439873 76.04,52.488 C75.3199964,55.0320127 74.6720029,57.3599894 74.096,59.472 L75.176,59.472 C75.5120017,59.472 75.9199976,59.4240005 76.4,59.328 C77.4560053,59.328 78.5599942,59.0880024 79.712,58.608 C82.304013,56.8799914 84.7759882,54.5760144 87.128,51.696 C89.4800118,48.8159856 91.8079885,45.7440163 94.112,42.48 C96.4160115,39.2159837 98.767988,35.880017 101.168,32.472 C103.568012,29.063983 106.183986,25.9200144 109.016,23.04 C111.848014,20.1599856 114.919983,17.7360098 118.232,15.768 C121.544017,13.7999902 125.263979,12.5760024 129.392,12.096 C130.832007,11.903999 132.631989,12.0239978 134.792,12.456 C136.952011,12.8880022 138.847992,13.4879962 140.48,14.256 C142.688011,15.2160048 143.935999,16.2239947 144.224,17.28 C144.416001,18.7200072 143.024015,19.9679947 140.048,21.024 C137.071985,22.4640072 134.384012,24.4319875 131.984,26.928 C129.583988,29.4240125 127.232012,32.1359854 124.928,35.064 C122.623988,37.9920146 120.296012,41.0159844 117.944,44.136 C115.591988,47.2560156 113.000014,50.1839863 110.168,52.92 C107.335986,55.6560137 104.168018,58.0559897 100.664,60.12 C97.1599825,62.1840103 93.104023,63.6479957 88.496,64.512 C91.5680154,65.3760043 94.1119899,66.6479916 96.128,68.328 C98.1440101,70.0080084 100.11199,71.951989 102.032,74.16 C103.760009,76.368011 105.367993,78.9119856 106.856,81.792 C108.344007,84.6720144 109.855992,87.4559866 111.392,90.144 C112.928008,92.8320134 114.535992,95.1119906 116.216,96.984 C117.896008,98.8560094 119.74399,99.8399995 121.76,99.936 C124.544014,99.743999 127.471985,98.5680108 130.544,96.408 C133.616015,94.2479892 136.063991,91.6320154 137.888,88.56 C138.176001,88.0799976 138.679996,87.5760026 139.4,87.048 C139.489255,86.9825465 139.577403,86.92115 139.664445,86.8638105 C139.743511,84.7300914 139.919362,82.4874989 140.192,80.136 C140.576002,76.8239834 141.151996,73.464017 141.92,70.056 C142.688004,66.647983 143.719994,63.5040144 145.016,60.624 C146.312006,57.7439856 147.895991,55.3200098 149.768,53.352 C151.640009,51.3839902 153.823988,50.1600024 156.32,49.68 C159.872018,49.3919986 162.60799,49.7279952 164.528,50.688 C166.160008,51.1680024 167.071999,52.0799933 167.264,53.424 C167.552001,54.2880043 167.648,55.1999952 167.552,56.16 C167.552,58.560012 167.192004,60.9359882 166.472,63.288 C165.751996,65.6400118 164.912005,68.2079861 163.952,70.992 C162.991995,73.7760139 162.008005,76.9439822 161,80.496 C159.991995,84.0480178 159.200003,88.1759765 158.624,92.88 C158.816001,94.5120082 159.823991,95.328 161.648,95.328 C164.432014,95.328 166.78399,93.9600137 168.704,91.224 C170.62401,88.4879863 172.255993,85.2960182 173.6,81.648 C175.328009,76.9439765 176.719995,72.6720192 177.776,68.832 C178.832005,64.9919808 179.911994,61.6800139 181.016,58.896 C182.120006,56.1119861 183.319994,53.9040082 184.616,52.272 C185.912006,50.6399918 187.615989,49.6800014 189.728,49.392 C191.74401,49.199999 194.095987,49.4399966 196.784,50.112 C198.224007,50.4960019 199.519994,51.0719962 200.672,51.84 C201.824006,52.6080038 202.495999,53.6159938 202.688,54.864 C202.880001,57.7440144 202.520005,60.9119827 201.608,64.368 C200.695995,67.8240173 199.616006,71.3039825 198.368,74.808 C197.119994,78.3120175 195.920006,81.6719839 194.768,84.888 C193.615994,88.1040161 192.848002,90.911988 192.464,93.312 C192.752001,94.9440082 193.85599,95.76 195.776,95.76 C197.504009,95.76 199.543988,94.9440082 201.896,93.312 C204.111745,91.7745445 206.519153,89.2999371 209.118288,85.8881105 Z" id="Kung-Fu"></path>
            <path d="M163.4,233.65 C162.499996,230.649985 161.200009,227.825013 159.5,225.175 C157.799991,222.524987 155.875011,219.975012 153.725,217.525 C151.574989,215.074988 149.375011,212.600013 147.125,210.1 C144.874989,207.599988 142.75001,205.025013 140.75,202.375 C138.74999,199.724987 136.975008,196.900015 135.425,193.9 C133.874992,190.899985 132.850003,187.600018 132.35,184 C131.649997,179.99998 131.774995,176.250018 132.725,172.75 C133.675005,169.249983 135.374988,166.175013 137.825,163.525 C140.275012,160.874987 143.424981,158.750008 147.275,157.15 C151.125019,155.549992 155.599975,154.600002 160.7,154.3 C162.500009,154.099999 164.274991,154.025 166.025,154.075 C167.775009,154.125 169.499992,154.249999 171.2,154.45 C177.700033,155.350005 182.94998,157.474983 186.95,160.825 C190.95002,164.175017 193.349996,168.249976 194.15,173.05 C194.550002,175.750014 194.400004,178.199989 193.7,180.4 C192.999997,182.600011 192.000006,184.474992 190.7,186.025 C189.399993,187.575008 187.925008,188.774996 186.275,189.625 C184.624992,190.475004 183.150007,190.9 181.85,190.9 C180.849995,190.9 179.525008,190.625003 177.875,190.075 C176.224992,189.524997 174.625008,188.850004 173.075,188.05 C171.524992,187.249996 170.175006,186.325005 169.025,185.275 C167.874994,184.224995 167.25,183.200005 167.15,182.2 C167.350001,181.599997 167.724997,181.025003 168.275,180.475 C168.825003,179.924997 169.449996,179.325003 170.15,178.675 C170.850004,178.024997 171.624996,177.275004 172.475,176.425 C173.325004,175.574996 174.149996,174.450007 174.95,173.05 C174.549998,171.649993 173.425009,170.275007 171.575,168.925 C169.724991,167.574993 166.900019,166.9 163.1,166.9 C161.499992,166.9 159.950008,167.124998 158.45,167.575 C156.949993,168.025002 155.650006,168.674996 154.55,169.525 C153.449995,170.375004 152.600003,171.374994 152,172.525 C151.399997,173.675006 151.199999,174.949993 151.4,176.35 C151.800002,178.750012 153.074989,181.549984 155.225,184.75 C157.375011,187.950016 160.899975,192.299973 165.8,197.8 C172.400033,204.900036 177.67498,210.974975 181.625,216.025 C185.57502,221.075025 187.949996,225.899977 188.75,230.5 C189.550004,235.900027 189.200008,241.074975 187.7,246.025 C186.199993,250.975025 183.47502,255.324981 179.525,259.075 C175.57498,262.825019 170.350032,265.824989 163.85,268.075 C157.349967,270.325011 149.550046,271.45 140.45,271.45 C133.349964,271.45 126.950029,270.550009 121.25,268.75 C115.549972,266.949991 110.625021,264.550015 106.475,261.55 C102.324979,258.549985 98.9750128,255.125019 96.425,251.275 C93.8749873,247.424981 92.300003,243.400021 91.7,239.2 C91.1999975,235.799983 91.3999955,232.375017 92.3,228.925 C93.2000045,225.474983 94.6999895,222.325014 96.8,219.475 C98.9000105,216.624986 101.549984,214.22501 104.75,212.275 C107.950016,210.32499 111.59998,209.150002 115.7,208.75 C116.800006,208.549999 118.074993,208.475 119.525,208.525 C120.975007,208.575 122.399993,208.699999 123.8,208.9 C126.100012,209.400003 128.22499,210.299994 130.175,211.6 C132.12501,212.900007 133.299998,214.699989 133.7,217 C134.000001,219.00001 133.300009,220.349997 131.6,221.05 C129.899991,221.750004 127.900012,222.299998 125.6,222.7 C123.399989,223.000002 121.250011,223.499997 119.15,224.2 C117.04999,224.900004 115.225008,225.849994 113.675,227.05 C112.124992,228.250006 110.925004,229.699992 110.075,231.4 C109.224996,233.100009 108.949999,235.099989 109.25,237.4 C109.650002,240.300015 110.84999,243.024987 112.85,245.575 C114.85001,248.125013 117.324985,250.37499 120.275,252.325 C123.225015,254.27501 126.574981,255.799995 130.325,256.9 C134.075019,258.000006 137.899981,258.55 141.8,258.55 C145.000016,258.55 147.974986,258.100005 150.725,257.2 C153.475014,256.299996 155.87499,255.050008 157.925,253.45 C159.97501,251.849992 161.549995,249.900012 162.65,247.6 C163.750005,245.299989 164.25,242.750014 164.15,239.95 C164.15,238.049991 163.900003,235.950012 163.4,233.65 Z M469.955395,241.900865 C469.289611,243.200573 468.47948,244.500282 467.525,245.8 C465.174988,249.000016 462.175018,251.924987 458.525,254.575 C454.874982,257.225013 450.750023,259.374992 446.15,261.025 C441.549977,262.675008 436.750025,263.5 431.75,263.5 C428.149982,263.5 424.775016,263.025005 421.625,262.075 C418.474984,261.124995 415.700012,259.750009 413.3,257.95 C410.899988,256.149991 408.900008,254.000013 407.3,251.5 C406.750781,250.641845 406.260478,249.742455 405.829089,248.801827 C405.647424,249.000899 405.462728,249.20029 405.275,249.4 C402.924988,251.900013 400.200016,254.17499 397.1,256.225 C393.999984,258.27501 390.675018,259.924994 387.125,261.175 C383.574982,262.425006 379.900019,263.05 376.1,263.05 C372.299981,263.05 369.325011,262.275008 367.175,260.725 C365.024989,259.174992 363.750002,257.100013 363.35,254.5 C363.25,253.999998 363.175,253.375004 363.125,252.625 C363.075,251.874996 363.174999,251.150004 363.425,250.45 C363.675001,249.749997 364.074997,249.150003 364.625,248.65 C365.175003,248.149998 365.999994,247.85 367.1,247.75 C368.600008,246.049992 369.924994,243.850014 371.075,241.15 C372.225006,238.449987 373.149997,235.750014 373.85,233.05 C374.550004,230.349987 375.049999,227.875011 375.35,225.625 C375.650002,223.374989 375.750001,221.850004 375.65,221.05 C375.449999,219.949995 375.175002,219.050004 374.825,218.35 C374.474998,217.649997 373.800005,217.3 372.8,217.3 C371.099991,217.2 369.350009,217.999992 367.55,219.7 C365.749991,221.400009 364.250006,223.399989 363.05,225.7 C360.749989,229.400019 358.975006,233.424978 357.725,237.775 C356.474994,242.125022 355.575003,246.724976 355.025,251.575 C354.474997,256.425024 354.225,261.474974 354.275,266.725 C354.325,271.975026 354.549998,277.349973 354.95,282.85 C355.150001,285.450013 355.524997,287.699991 356.075,289.6 C356.625003,291.50001 356.949999,293.44999 357.05,295.45 C357.450002,298.050013 356.900008,299.899995 355.4,301 C353.899992,302.100006 352.000012,302.65 349.7,302.65 C344.299973,302.65 340.150014,301.075016 337.25,297.925 C334.349986,294.774984 332.650003,290.300029 332.15,284.5 C331.849998,279.899977 331.824999,275.275023 332.075,270.625 C332.325001,265.974977 332.799997,261.250024 333.5,256.45 C330.799986,258.55001 327.800016,260.224994 324.5,261.475 C321.199984,262.725006 317.700018,263.35 314,263.35 C310.199981,263.35 307.175011,262.525008 304.925,260.875 C302.674989,259.224992 301.200003,257.100013 300.5,254.5 C300.4,253.999998 300.300001,253.375004 300.2,252.625 C300.099999,251.874996 300.124999,251.150004 300.275,250.45 C300.425001,249.749997 300.749997,249.150003 301.25,248.65 C301.750002,248.149998 302.549995,247.85 303.65,247.75 C304.950006,246.049992 306.124995,243.825014 307.175,241.075 C308.225005,238.324986 309.124996,235.575014 309.875,232.825 C310.625004,230.074986 311.149999,227.550012 311.45,225.25 C311.750001,222.949989 311.800001,221.400004 311.6,220.6 C311.399999,219.499995 311.075002,218.600004 310.625,217.9 C310.174998,217.199997 309.450005,216.85 308.45,216.85 C306.749991,216.75 305.100008,217.549992 303.5,219.25 C301.899992,220.950009 300.550005,222.949989 299.45,225.25 C296.849987,230.250025 295.125004,235.674971 294.275,241.525 C293.424996,247.375029 293.099999,253.574967 293.3,260.125 C293.500001,266.675033 294.074995,273.424965 295.025,280.375 C295.975005,287.325035 296.999994,294.299965 298.1,301.3 C298.800004,303.900013 298.450007,305.749995 297.05,306.85 C295.649993,307.950005 293.850011,308.5 291.65,308.5 C286.549974,308.5 282.425016,306.825017 279.275,303.475 C276.124984,300.124983 274.050005,295.550029 273.05,289.75 C272.449997,285.449979 272.075001,280.925024 271.925,276.175 C271.774999,271.424976 271.799999,266.575025 272,261.625 C272.104799,259.031231 272.250781,256.444347 272.437949,253.864326 C272.244172,254.02708 272.048189,254.188972 271.85,254.35 C268.649984,256.950013 265.225018,259.149991 261.575,260.95 C257.924982,262.750009 254.600015,263.65 251.6,263.65 C247.099978,263.65 243.925009,262.750009 242.075,260.95 C240.224991,259.149991 239.000003,256.300019 238.4,252.4 C238.386248,252.312904 238.372759,252.224494 238.359532,252.134771 C237.391598,253.080974 236.355088,253.994383 235.25,254.875 C232.049984,257.425013 228.525019,259.549992 224.675,261.25 C220.824981,262.950008 217.100018,263.8 213.5,263.8 C210.099983,263.8 207.100013,262.85001 204.5,260.95 C201.899987,259.049991 200.300003,255.950022 199.7,251.65 C199.399999,249.64999 199.374999,246.125025 199.625,241.075 C199.875001,236.024975 200.399996,230.275032 201.2,223.825 C202.000004,217.374968 203.099993,210.625035 204.5,203.575 C205.900007,196.524965 207.62499,190.00003 209.675,184 C211.72501,177.99997 214.099987,172.925021 216.8,168.775 C219.500014,164.624979 222.599983,162.250003 226.1,161.65 C227.500007,161.55 228.999992,161.749998 230.6,162.25 C232.200008,162.750003 233.699993,163.399996 235.1,164.2 C236.900009,165.000004 238.524993,166.149993 239.975,167.65 C241.425007,169.150008 242.299999,170.749992 242.6,172.45 C242.800001,173.350005 242.725002,174.299995 242.375,175.3 C242.024998,176.300005 241.350005,177.249996 240.35,178.15 C238.649992,180.05001 236.925009,182.774982 235.175,186.325 C233.424991,189.875018 231.700008,193.849978 230,198.25 C228.299992,202.650022 226.700008,207.224976 225.2,211.975 C223.699993,216.725024 222.425005,221.274978 221.375,225.625 C220.324995,229.975022 219.550003,233.924982 219.05,237.475 C218.549998,241.025018 218.449999,243.74999 218.75,245.65 C218.950001,246.950007 219.374997,247.949997 220.025,248.65 C220.675003,249.350004 221.699993,249.7 223.1,249.7 C224.700008,249.7 226.47499,249.025007 228.425,247.675 C230.37501,246.324993 232.249991,244.750009 234.05,242.95 C235.443174,241.556826 236.761451,240.178644 238.004856,238.81543 C238.080636,237.457292 238.187351,236.060484 238.325,234.625 C238.675002,230.974982 239.249996,227.250019 240.05,223.45 C240.850004,219.649981 241.924993,216.175016 243.275,213.025 C244.625007,209.874984 246.249991,207.225011 248.15,205.075 C250.050009,202.924989 252.299987,201.650002 254.9,201.25 C257.500013,200.949999 259.749991,201.049998 261.65,201.55 C263.550009,202.050003 264.849996,202.799995 265.55,203.8 C266.250003,204.800005 266.699999,205.749996 266.9,206.65 C267,208.55001 266.925001,210.274992 266.675,211.825 C266.424999,213.375008 266.025003,214.974992 265.475,216.625 C264.924997,218.275008 264.300004,220.049991 263.6,221.95 C262.899996,223.85001 262.150004,226.149987 261.35,228.85 C260.649997,231.150012 259.900004,233.824985 259.1,236.875 C258.299996,239.925015 257.800001,243.049984 257.6,246.25 C257.800001,247.850008 258.749992,248.65 260.45,248.65 C262.55001,248.65 265.024986,247.325013 267.875,244.675 C269.845351,242.842919 271.875427,240.807725 273.965256,238.569388 C274.201219,236.593793 274.446133,234.654001 274.7,232.75 C275.300003,227.649975 275.974996,222.800023 276.725,218.2 C277.475004,213.599977 278.424994,209.550018 279.575,206.05 C280.725006,202.549983 282.149991,199.750011 283.85,197.65 C285.550008,195.54999 287.599988,194.5 290,194.5 C290.700003,194.5 291.574995,194.624999 292.625,194.875 C293.675005,195.125001 294.724995,195.474998 295.775,195.925 C296.825005,196.375002 297.774996,196.949997 298.625,197.65 C299.475004,198.350004 299.999999,199.199995 300.2,200.2 C300.300001,200.500002 300.150002,201.074996 299.75,201.925 C299.349998,202.775004 298.925002,203.749995 298.475,204.85 C298.024998,205.950006 297.600002,207.049995 297.2,208.15 C296.799998,209.250006 296.65,210.199996 296.75,211 C299.050011,208.099986 301.474987,205.70001 304.025,203.8 C306.575013,201.899991 309.199987,200.750002 311.9,200.35 C314.700014,200.049999 317.299988,200.299996 319.7,201.1 C322.400014,201.900004 324.499992,203.224991 326,205.075 C327.500007,206.925009 328.549997,209.199987 329.15,211.9 C329.950004,215.100016 330.125002,218.649981 329.675,222.55 C329.224998,226.45002 328.525005,230.199982 327.575,233.8 C326.624995,237.400018 325.525006,240.599986 324.275,243.4 C323.024994,246.200014 321.950004,248.049996 321.05,248.95 C323.350011,248.749999 325.349991,248.175005 327.05,247.225 C328.750009,246.274995 330.249993,245.075007 331.55,243.625 C332.850006,242.174993 333.949995,240.525009 334.85,238.675 C335.750005,236.824991 336.599996,234.850011 337.4,232.75 C339.200009,224.64996 341.174989,217.475031 343.325,211.225 C345.475011,204.974969 348.049985,200.300016 351.05,197.2 C351.750004,196.699998 352.474996,196.300002 353.225,196 C353.975004,195.699999 354.949994,195.55 356.15,195.55 C356.850003,195.55 357.724995,195.649999 358.775,195.85 C359.825005,196.050001 360.874995,196.374998 361.925,196.825 C362.975005,197.275002 363.874996,197.849997 364.625,198.55 C365.375004,199.250004 365.849999,200.049996 366.05,200.95 C366.05,201.250002 365.825002,201.824996 365.375,202.675 C364.924998,203.525004 364.425003,204.499995 363.875,205.6 C363.324997,206.700006 362.825002,207.824994 362.375,208.975 C361.924998,210.125006 361.75,211.049997 361.85,211.75 C364.450013,208.549984 367.249985,205.92501 370.25,203.875 C373.250015,201.82499 376.449983,200.8 379.85,200.8 C383.350018,200.8 386.12499,201.449994 388.175,202.75 C390.22501,204.050007 391.749995,205.849989 392.75,208.15 C393.550004,209.950009 394.049999,212.149987 394.25,214.75 C394.550002,217.950016 394.350003,221.374982 393.65,225.025 C392.949996,228.675018 392.075005,232.124984 391.025,235.375 C389.974995,238.625016 388.850006,241.499988 387.65,244 C386.449994,246.500013 385.450004,248.149996 384.65,248.95 C389.550025,248.449998 393.724983,246.600016 397.175,243.4 C399.326667,241.404251 401.390797,239.214042 403.367416,236.829346 C403.272074,234.13335 403.407935,231.373577 403.775,228.55 C404.425003,223.549975 405.899989,219.05002 408.2,215.05 C409.400006,212.94999 410.924991,210.95001 412.775,209.05 C414.625009,207.149991 416.824987,205.475007 419.375,204.025 C421.925013,202.574993 424.849984,201.425004 428.15,200.575 C431.450016,199.724996 435.09998,199.3 439.1,199.3 C444.800028,199.3 449.174985,200.474988 452.225,202.825 C455.275015,205.175012 457.149996,208.299981 457.85,212.2 C458.350002,215.800018 457.800008,219.174984 456.2,222.325 C454.599992,225.475016 452.275015,228.224988 449.225,230.575 C446.174985,232.925012 442.575021,234.799993 438.425,236.2 C434.274979,237.600007 429.900023,238.3 425.3,238.3 C425.600001,241.700017 426.599991,244.474989 428.3,246.625 C430.000008,248.775011 432.949979,249.999999 437.15,250.3 C443.15003,250.099999 448.574976,248.250018 453.425,244.75 C457.446925,241.84758 461.03901,238.395066 464.201328,234.392383 C465.561914,232.05701 466.819801,229.709555 467.975,227.35 C470.325012,222.549976 471.699998,217.050031 472.1,210.85 C471.199995,210.149997 470.200005,209.075007 469.1,207.625 C467.999994,206.174993 467.350001,204.800007 467.15,203.5 C466.849998,200.499985 466.949997,197.800012 467.45,195.4 C467.950002,192.999988 468.699995,190.950009 469.7,189.25 C470.700005,187.549992 471.899993,186.225005 473.3,185.275 C474.700007,184.324995 476.149992,183.800001 477.65,183.7 C478.750005,183.7 480.099992,183.849999 481.7,184.15 C483.300008,184.450002 484.899992,184.849998 486.5,185.35 C488.200009,185.850003 489.824992,186.574995 491.375,187.525 C492.925008,188.475005 493.799999,189.499995 494,190.6 C494.1,191.300004 493.850003,192.099996 493.25,193 C492.649997,193.900005 491.925004,194.874995 491.075,195.925 C490.224996,196.975005 489.400004,198.099994 488.6,199.3 C487.799996,200.500006 487.250001,201.749994 486.95,203.05 C487.550003,203.550003 488.324995,203.999998 489.275,204.4 C490.225005,204.800002 491.249994,205.124999 492.35,205.375 C493.450005,205.625001 494.574994,205.8 495.725,205.9 C496.875006,206.000001 497.899995,206.05 498.8,206.05 C500.400008,206.05 501.974992,205.725003 503.525,205.075 C505.075008,204.424997 506.299996,204.1 507.2,204.1 C508.200005,204.1 509.299994,204.324998 510.5,204.775 C511.700006,205.225002 512.774995,205.824996 513.725,206.575 C514.675005,207.325004 515.499996,208.149996 516.2,209.05 C516.900003,209.950005 517.3,210.799996 517.4,211.6 C517.800002,214.200013 517.500005,217.199983 516.5,220.6 C515.499995,224.000017 514.350007,227.374983 513.05,230.725 C511.749993,234.075017 510.575005,237.224985 509.525,240.175 C508.474995,243.125015 508.099998,245.399992 508.4,247 C508.4,248.600008 509.34999,249.4 511.25,249.4 C512.950008,249.4 515.249985,248.42501 518.15,246.475 C520.209475,245.090181 522.64717,242.784988 525.463124,239.55938 C526.849562,237.506782 528.261847,235.311999 529.7,232.975 C531.70001,229.724984 533.899988,226.750014 536.3,224.05 C538.700012,221.349987 541.324986,219.200008 544.175,217.6 C547.025014,215.999992 550.199983,215.499997 553.7,216.1 C559.100027,216.800004 564.174976,217.474997 568.925,218.125 C573.675024,218.775003 578.499976,219.349998 583.4,219.85 C590.400035,220.450003 596.92497,220.625001 602.975,220.375 C609.02503,220.124999 613.699983,219.300007 617,217.9 C618.90001,217.499998 620.524993,216.750006 621.875,215.65 C623.225007,214.549995 624.399995,213.300007 625.4,211.9 C626.400005,210.499993 627.199997,209.000008 627.8,207.4 C628.400003,205.799992 628.949997,204.250008 629.45,202.75 C630.150004,201.249993 630.899996,199.900006 631.7,198.7 C632.500004,197.499994 633.499994,196.999999 634.7,197.2 C636.600009,197.500002 638.174994,198.799989 639.425,201.1 C640.675006,203.400012 641.3,206.199984 641.3,209.5 C641.3,213.200019 640.375009,217.02498 638.525,220.975 C636.674991,224.92502 633.77502,228.549983 629.825,231.85 C625.87498,235.150017 620.775031,237.84999 614.525,239.95 C608.274969,242.050011 600.750044,243.1 591.95,243.1 C590.549993,243.1 588.650012,242.875002 586.25,242.425 C583.849988,241.974998 581.200014,241.450003 578.3,240.85 C575.399985,240.249997 572.375016,239.550004 569.225,238.75 C566.074984,237.949996 563.075014,237.250003 560.225,236.65 C557.374986,236.049997 554.775012,235.525002 552.425,235.075 C550.074988,234.624998 548.250006,234.4 546.95,234.4 C545.349992,234.4 543.650009,234.949995 541.85,236.05 C540.049991,237.150006 538.450007,238.549992 537.05,240.25 C535.749993,241.950008 534.325008,243.574992 532.775,245.125 C531.780599,246.119401 530.817075,247.021188 529.884418,247.830371 C528.133139,249.973645 526.096677,252.021843 523.775,253.975 C520.624984,256.625013 517.225018,258.824991 513.575,260.575 C509.924982,262.325009 506.550015,263.2 503.45,263.2 C494.649956,263.2 489.350009,259.650036 487.55,252.55 C487.149998,250.049988 487.474995,247.300015 488.525,244.3 C489.575005,241.299985 490.774993,238.325015 492.125,235.375 C493.475007,232.424985 494.649995,229.575014 495.65,226.825 C496.650005,224.074986 496.900003,221.70001 496.4,219.7 C496.199999,218.399994 495.550005,217.525002 494.45,217.075 C493.349994,216.624998 492.050007,216.325001 490.55,216.175 C489.049992,216.024999 487.550007,215.95 486.05,215.95 C484.549993,215.95 483.350005,215.800002 482.45,215.5 C481.649996,218.700016 480.475008,222.099982 478.925,225.7 C477.374992,229.300018 475.700009,232.674984 473.9,235.825 C472.610774,238.081146 471.295912,240.106424 469.955395,241.900865 Z M264.95,192.25 C262.549988,192.15 260.37501,191.475006 258.425,190.225 C256.47499,188.974994 255.100004,186.650017 254.3,183.25 C253.999999,180.549987 254.074998,178.100011 254.525,175.9 C254.975002,173.699989 255.674995,171.775008 256.625,170.125 C257.575005,168.474992 258.724993,167.200005 260.075,166.3 C261.425007,165.399996 262.849992,164.95 264.35,164.95 C265.550006,164.95 267.024991,165.149998 268.775,165.55 C270.525009,165.950002 272.224992,166.499997 273.875,167.2 C275.525008,167.900004 276.974994,168.749995 278.225,169.75 C279.475006,170.750005 280.199999,171.849994 280.4,173.05 C280.600001,174.250006 279.850009,175.699992 278.15,177.4 C276.949994,178.600006 275.900005,180.049992 275,181.75 C274.099995,183.450009 273.250004,185.074992 272.45,186.625 C271.649996,188.175008 270.825004,189.499995 269.975,190.6 C269.124996,191.700006 268.200005,192.25 267.2,192.25 L264.95,192.25 Z M424.7,229.3 C427.000012,229.600002 429.224989,229.325004 431.375,228.475 C433.525011,227.624996 435.374992,226.450007 436.925,224.95 C438.475008,223.449993 439.674996,221.72501 440.525,219.775 C441.375004,217.82499 441.650002,215.950009 441.35,214.15 C441.149999,212.949994 440.725003,211.950004 440.075,211.15 C439.424997,210.349996 438.400007,209.95 437,209.95 C435.599993,209.95 434.225007,210.449995 432.875,211.45 C431.524993,212.450005 430.275006,213.824991 429.125,215.575 C427.974994,217.325009 427.000004,219.374988 426.2,221.725 C425.399996,224.075012 424.900001,226.599987 424.7,229.3 Z" id="Slipper__"></path>
        </g>
    </g>
</svg>